<?xml version="1.0"?><svg width="1082.6781" height="881.28772" xmlns="http://www.w3.org/2000/svg">
 <metadata id="metadata4566">image/svg+xml</metadata>
 <g>
  <title>Layer 1</title>
  <g id="layer1">
   <path d="m679.837891,55.966213c-55.492615,0 -100.466064,48.265995 -100.466064,107.817982c0,31.150024 12.302612,59.212021 31.983398,78.896011l-78.473511,-20.758987l-123.273987,33.383987l-48.674011,107.78949l-11.014526,19.840515l-14.821747,26.283203l45.156219,10.417297l86.359314,-103.627502l32.770752,8.134003l-50.539307,233.655945l0.378662,0.903992l-137.750641,129.919067l-146.193298,-108.516541l-41.427231,20.479492l14.477615,28.005005l136.265015,178.142029l259.015503,-106.156006l133.90625,-34.929016l72.978088,184.48999l42.088318,5.482971l8.032776,-54.047974l-34.048584,-221.789001l-154.969666,-27.056946l65.773193,-174.761017l149.021179,59.099213l118.999939,-159.337219l21.943604,-11.806976l7.83606,-39.083008l-34.144043,-15.890991l-148.51416,121.768982l-92.214783,-61.665009c50.583252,-5.608978 90.036743,-51.498978 90.036743,-107.264999c0,-59.551987 -45.008423,-107.817982 -100.49707,-107.817982l0,0z" id="path4206" fill="#000000"/>
  </g>
 </g>
</svg>